<svg width="12" height="12" viewBox="0 0 12 12" fill="none" xmlns="http://www.w3.org/2000/svg">
  <g clip-path="url(#clip0_208_785)">
    <path d="M7.5415 5.94338L11.2499 8.28775V3.5L7.5415 5.94338Z" fill="#FEAD04" />
    <path d="M0.25 3.5V8.28775L3.95837 5.94338L0.25 3.5Z" fill="#FEAD04" />
    <path d="M10.5624 2.10547H0.937383C0.59432 2.10547 0.32207 2.36122 0.270508 2.69053L5.74988 6.30059L11.2293 2.69053C11.1777 2.36122 10.9054 2.10547 10.5624 2.10547Z" fill="#FEAD04" />
    <path d="M6.91185 6.36006L5.93904 7.00081C5.88129 7.03862 5.81598 7.05719 5.74998 7.05719C5.68397 7.05719 5.61866 7.03862 5.56091 7.00081L4.5881 6.35938L0.271973 9.08944C0.32491 9.416 0.595785 9.66969 0.937473 9.66969H10.5625C10.9042 9.66969 11.175 9.416 11.228 9.08944L6.91185 6.36006Z" fill="#FEAD04" />
  </g>
  <defs>
    <clipPath id="clip0_208_785">
      <rect width="11" height="11" fill="white" transform="translate(0.25 0.386719)" />
    </clipPath>
  </defs>
</svg>